<svg width="100" height="21" viewBox="0 0 100 21" fill="none" xmlns="http://www.w3.org/2000/svg">
<rect x="0.5" y="0.5" width="99" height="20" fill="black" stroke="#D3C48D"/>
<path d="M23.368 16.208C24.968 16.208 26.36 15.52 27.272 14.496V10.88H22.36V11.36H26.76V14.288C26.136 14.944 24.936 15.728 23.368 15.728C20.696 15.728 18.6 13.648 18.6 10.672C18.6 7.664 20.696 5.632 23.368 5.632C24.792 5.632 26.104 6.208 26.936 7.152L27.272 6.8C26.232 5.728 24.984 5.152 23.368 5.152C20.408 5.152 18.04 7.392 18.04 10.672C18.04 13.952 20.408 16.208 23.368 16.208ZM38.1681 16L33.7201 5.328H33.1121L28.6641 16H29.2561L30.4401 13.136H36.3921L37.5761 16H38.1681ZM36.2001 12.656H30.6321L33.4161 5.92L36.2001 12.656ZM45.78 16V15.52H40.42V5.328H39.908V16H45.78ZM53.7644 16V15.52H48.4044V5.328H47.8924V16H53.7644ZM62.4048 16V15.52H56.3888V10.752H62.2928V10.272H56.3888V5.808H62.4048V5.328H55.8768V16H62.4048ZM71.7746 16L68.4786 11.392C70.2066 11.392 71.6306 10.304 71.6306 8.352C71.6306 6.4 70.2066 5.328 68.4786 5.328H64.7986V16H65.3106V11.392H67.8706L71.1186 16H71.7746ZM68.4786 10.912H65.3106V5.808H68.4786C70.0466 5.808 71.0706 6.88 71.0706 8.352C71.0706 9.824 70.0466 10.912 68.4786 10.912ZM77.5735 16V11.376L81.8615 5.328H81.2055L77.3175 10.864L73.4295 5.328H72.7735L77.0615 11.376V16H77.5735Z" fill="white"/>
</svg>
